<svg xmlns="http://www.w3.org/2000/svg" width="22" height="22" viewBox="0 0 47 47" fill="none">
<path d="M23.5 4.40625C12.9718 4.40625 4.40625 12.9718 4.40625 23.5C4.40625 34.0282 12.9718 42.5938 23.5 42.5938C34.0282 42.5938 42.5938 34.0282 42.5938 23.5C42.5938 12.9718 34.0282 4.40625 23.5 4.40625ZM23.5 33.773C23.1369 33.773 22.7819 33.6653 22.48 33.4636C22.1781 33.2618 21.9428 32.9751 21.8038 32.6396C21.6649 32.3042 21.6285 31.935 21.6993 31.5789C21.7702 31.2227 21.945 30.8956 22.2018 30.6388C22.4586 30.3821 22.7857 30.2072 23.1418 30.1364C23.498 30.0655 23.8671 30.1019 24.2026 30.2409C24.5381 30.3798 24.8248 30.6151 25.0265 30.9171C25.2283 31.219 25.3359 31.5739 25.3359 31.9371C25.3359 32.424 25.1425 32.8909 24.7982 33.2353C24.4539 33.5796 23.9869 33.773 23.5 33.773ZM25.4938 15.308L24.9669 26.5073C24.9669 26.8968 24.8122 27.2704 24.5367 27.5458C24.2613 27.8213 23.8877 27.976 23.4982 27.976C23.1086 27.976 22.735 27.8213 22.4596 27.5458C22.1842 27.2704 22.0294 26.8968 22.0294 26.5073L21.5025 15.3136V15.309C21.491 15.0399 21.534 14.7713 21.629 14.5194C21.724 14.2674 21.869 14.0373 22.0552 13.8428C22.2415 13.6484 22.4652 13.4936 22.7129 13.3879C22.9606 13.2822 23.227 13.2277 23.4963 13.2277C23.7656 13.2277 24.0321 13.2822 24.2798 13.3879C24.5274 13.4936 24.7511 13.6484 24.9374 13.8428C25.1237 14.0373 25.2687 14.2674 25.3637 14.5194C25.4587 14.7713 25.5017 15.0399 25.4902 15.309L25.4938 15.308Z" fill="white"/>
</svg>