 <svg xmlns="http://www.w3.org/2000/svg" width="42" height="42" viewBox="0 0 42 42" fill="none">
  <path fill-rule="evenodd" clip-rule="evenodd" d="M0 21V42H7.875V21H0ZM5.25 39.375H2.56988V34.0699H5.25V39.375ZM5.30512 31.5H2.5725V26.1949H5.30512V31.5ZM23.625 13.125V7.875H21V0H18.375V7.875H15.75V13.125H10.5V42H28.875V13.125H23.625ZM15.75 39.375H13.125V34.125H15.75V39.375ZM15.75 31.6102H13.125V26.25H15.75V31.6102ZM15.75 23.7352H13.125V18.375H15.75V23.7352ZM21 39.375H18.375V34.125H21V39.375ZM21 31.6102H18.375V26.25H21V31.6102ZM21 23.7352H18.375V18.375H21V23.7352ZM26.25 39.375H23.625V34.125H26.25V39.375ZM26.25 31.6102H23.625V26.25H26.25V31.6102ZM26.25 23.7352H23.625V18.375H26.25V23.7352ZM31.5 18.375V42H42V28.875L31.5 18.375ZM36.8314 39.5378H34.125V36.666H36.8314V39.5378ZM36.8314 34.2878H34.125V31.416H36.8314V34.2878ZM36.8314 29.0378H34.125V26.166H36.8314V29.0378Z" fill="white"/>
</svg>