<svg xmlns="http://www.w3.org/2000/svg" width="44" height="44" viewBox="0 0 44 44" fill="none">
  <path d="M22 0L40.1771 8.25H42.6245C42.9892 8.25 43.3389 8.39486 43.5968 8.65273C43.8547 8.91059 43.9995 9.26032 43.9995 9.625V15.125C43.9995 15.4897 43.8547 15.8394 43.5968 16.0973C43.3389 16.3551 42.9892 16.5 42.6245 16.5H41.2496V35.75C41.5566 35.7502 41.8548 35.8533 42.0965 36.0426C42.3382 36.232 42.5096 36.4969 42.5833 36.795L43.9583 42.295C44.0094 42.4975 44.0136 42.7091 43.9704 42.9135C43.9273 43.1179 43.8379 43.3097 43.7092 43.4743C43.5805 43.6389 43.4158 43.7718 43.2278 43.8629C43.0398 43.954 42.8335 44.0009 42.6245 44H1.37545C1.16654 44.0009 0.960193 43.954 0.772196 43.8629C0.5842 43.7718 0.419541 43.6389 0.290822 43.4743C0.162103 43.3097 0.0727368 43.1179 0.029563 42.9135C-0.0136109 42.7091 -0.00944781 42.4975 0.0417336 42.295L1.4167 36.795C1.49084 36.4971 1.66232 36.2325 1.90394 36.0432C2.14556 35.8539 2.44347 35.7507 2.75042 35.75V16.5H1.37545C1.01079 16.5 0.661061 16.3551 0.403204 16.0973C0.145347 15.8394 0.000484499 15.4897 0.000484499 15.125V9.625C0.000484499 9.26032 0.145347 8.91059 0.403204 8.65273C0.661061 8.39486 1.01079 8.25 1.37545 8.25H3.8229L22 0ZM10.387 8.25H33.6157L22 2.75L10.387 8.25ZM5.50036 16.5V35.75H8.2503V16.5H5.50036ZM11.0002 16.5V35.75H17.8751V16.5H11.0002ZM20.625 16.5V35.75H23.375V16.5H20.625ZM26.1249 16.5V35.75H32.9998V16.5H26.1249ZM35.7497 16.5V35.75H38.4996V16.5H35.7497ZM41.2496 13.75V11H2.75042V13.75H41.2496ZM40.1771 38.5H3.8229L3.13542 41.25H40.8646L40.1771 38.5Z" fill="white"/>
</svg>