<svg width="20" height="20" viewBox="0 0 21 21" fill="none" xmlns="http://www.w3.org/2000/svg">
<path d="M10.9512 0.81233C5.32738 0.736376 0.73625 5.32729 0.812208 10.9508C0.887205 16.344 5.27883 20.7355 10.6723 20.8104C16.2971 20.8874 20.8872 16.2964 20.8103 10.6729C20.7363 5.27874 16.3447 0.887323 10.9512 0.81233ZM15.3788 6.92906L11.4252 15.8955C11.1949 16.3988 10.4262 16.232 10.4262 15.6763V11.3883C10.4262 11.3373 10.4059 11.2884 10.3699 11.2523C10.3338 11.2162 10.2849 11.196 10.2339 11.196H5.94659C5.39277 11.196 5.22547 10.4331 5.72689 10.2023L14.6943 6.24451C14.7901 6.20027 14.8971 6.18648 15.001 6.20499C15.1049 6.22351 15.2007 6.27345 15.2753 6.34807C15.3499 6.42269 15.3998 6.5184 15.4184 6.62229C15.4369 6.72618 15.4231 6.83326 15.3788 6.92906V6.92906Z" fill="#772683"/>
</svg>
