 <svg xmlns="http://www.w3.org/2000/svg" width="40" height="40" viewBox="0 0 40 40" fill="none">
  <path d="M26.25 20C24.6438 20 23.0906 19.2828 21.875 17.9813C20.693 16.7117 19.9711 15.0188 19.8438 13.2156C19.7078 11.2922 20.2945 9.52344 21.4953 8.23438C22.6961 6.94531 24.375 6.25 26.25 6.25C28.1117 6.25 29.7953 6.95781 30.9922 8.24375C32.2008 9.54219 32.7891 11.3078 32.6531 13.2148C32.5227 15.0203 31.8016 16.7125 30.6219 17.9805C29.4094 19.2828 27.857 20 26.25 20ZM36.5492 33.75H15.9516C15.6204 33.7518 15.2932 33.6775 14.9953 33.533C14.6973 33.3885 14.4365 33.1776 14.2328 32.9164C14.0168 32.6333 13.8676 32.305 13.7965 31.9561C13.7253 31.6072 13.734 31.2467 13.8219 30.9016C14.4797 28.2602 16.1094 26.0695 18.5344 24.5672C20.6867 23.2344 23.4266 22.5 26.25 22.5C29.1289 22.5 31.7969 23.2031 33.9617 24.5352C36.3922 26.0297 38.0242 28.2328 38.6789 30.9062C38.7657 31.2516 38.7735 31.6121 38.7015 31.9608C38.6295 32.3096 38.4797 32.6376 38.2633 32.9203C38.0599 33.1803 37.7996 33.3902 37.5025 33.534C37.2054 33.6778 36.8793 33.7517 36.5492 33.75ZM11.4844 20.3125C8.73516 20.3125 6.31797 17.7563 6.09375 14.6148C5.98282 13.0055 6.48438 11.5172 7.5 10.4258C8.50469 9.34531 9.92188 8.75 11.4844 8.75C13.0469 8.75 14.4531 9.34844 15.4633 10.4352C16.4867 11.5352 16.9867 13.0203 16.8695 14.6164C16.6453 17.757 14.2289 20.3125 11.4844 20.3125ZM16.6141 22.7695C15.2398 22.0977 13.4563 21.7617 11.4852 21.7617C9.1836 21.7617 6.94844 22.3617 5.19063 23.4508C3.19766 24.6875 1.85703 26.4883 1.31563 28.6625C1.2364 28.9752 1.2289 29.3018 1.29371 29.6179C1.35851 29.9339 1.49393 30.2312 1.68985 30.4875C1.87574 30.7261 2.1139 30.919 2.38599 31.0512C2.65809 31.1834 2.95688 31.2514 3.25938 31.25H11.9313C12.0776 31.25 12.2193 31.1986 12.3317 31.1048C12.4441 31.011 12.5199 30.8807 12.5461 30.7367C12.5547 30.6875 12.5656 30.6383 12.5781 30.5898C13.2406 27.9289 14.793 25.6805 17.0867 24.0414C17.1711 23.9806 17.2389 23.8997 17.2841 23.806C17.3293 23.7124 17.3505 23.6089 17.3456 23.505C17.3407 23.4011 17.3099 23.3001 17.2562 23.2111C17.2024 23.1221 17.1272 23.0479 17.0375 22.9953C16.9148 22.9234 16.7742 22.8477 16.6141 22.7695Z" fill="white"/>
</svg>